<svg width="300" height="100" viewBox="0 0 300 100" fill="none" xmlns="http://www.w3.org/2000/svg">
<path d="M13.0938 49.995H34.2656L50.9323 30.7625H29.7604L13.0938 49.995ZM119.818 0L75.5156 49.995H96.6875L140.99 0H119.818ZM77.401 12.5621L44.3073 49.995H65.474L98.5677 12.5621H77.401Z" fill="#00ADEF"/>
<path d="M127.896 49.995H106.729L90.0573 69.2275H111.229L127.896 49.995ZM21.1719 99.9948L65.474 49.995H44.3021L0 99.9948H21.1719ZM63.5885 87.4327L96.6875 49.995H75.5156L42.4219 87.4327H63.5885Z" fill="white"/>
<path d="M134.14 65.24C132.527 65.24 131.227 64.78 130.24 63.86C129.253 62.9267 128.733 61.84 128.68 60.6H131.58C131.687 61.2267 131.973 61.7133 132.44 62.06C132.907 62.3933 133.473 62.56 134.14 62.56C134.74 62.56 135.227 62.4333 135.6 62.18C135.973 61.9133 136.16 61.56 136.16 61.12C136.16 60.3333 135.527 59.76 134.26 59.4L132.76 58.96C131.6 58.6267 130.693 58.1067 130.04 57.4C129.387 56.6933 129.053 55.8133 129.04 54.76C129.04 53.4667 129.473 52.4467 130.34 51.7C131.207 50.94 132.36 50.56 133.8 50.56C135.253 50.56 136.433 51 137.34 51.88C138.247 52.7467 138.727 53.7467 138.78 54.88H135.9C135.753 54.32 135.487 53.9067 135.1 53.64C134.713 53.3733 134.28 53.24 133.8 53.24C133.267 53.24 132.827 53.36 132.48 53.6C132.147 53.8267 131.973 54.1467 131.96 54.56C131.947 54.9867 132.087 55.3333 132.38 55.6C132.673 55.8667 133.127 56.0867 133.74 56.26L135.4 56.72C137.853 57.4 139.08 58.8333 139.08 61.02C139.08 62.2467 138.62 63.26 137.7 64.06C136.793 64.8467 135.607 65.24 134.14 65.24ZM144.795 61.12C145.662 62 146.709 62.44 147.935 62.44C149.162 62.44 150.202 62 151.055 61.12C151.922 60.2267 152.355 59.1533 152.355 57.9C152.355 56.6467 151.922 55.58 151.055 54.7C150.202 53.8067 149.162 53.36 147.935 53.36C146.709 53.36 145.662 53.8067 144.795 54.7C143.942 55.58 143.515 56.6467 143.515 57.9C143.515 59.1533 143.942 60.2267 144.795 61.12ZM153.115 63.1C151.689 64.5267 149.962 65.24 147.935 65.24C145.909 65.24 144.175 64.5267 142.735 63.1C141.309 61.66 140.595 59.9267 140.595 57.9C140.595 55.8733 141.309 54.1467 142.735 52.72C144.175 51.28 145.909 50.56 147.935 50.56C149.962 50.56 151.689 51.28 153.115 52.72C154.555 54.1467 155.275 55.8733 155.275 57.9C155.275 59.9267 154.555 61.66 153.115 63.1ZM157.588 65V50.8H160.488V62.24H166.568V65H157.588ZM167.043 65L173.163 50.8H175.743L181.883 65H178.843L177.463 61.76H171.403L170.043 65H167.043ZM174.443 54.62L172.483 59.22H176.383L174.443 54.62ZM183.467 65V50.8H188.667C189.853 50.8 190.853 51.2067 191.667 52.02C192.48 52.82 192.887 53.7867 192.887 54.92C192.887 55.9467 192.513 56.7933 191.767 57.46C193.167 58.1533 193.867 59.2733 193.867 60.82C193.867 62.0067 193.447 63 192.607 63.8C191.767 64.6 190.72 65 189.467 65H183.467ZM186.367 62.34H189.267C189.813 62.34 190.247 62.1933 190.567 61.9C190.887 61.5933 191.047 61.2 191.047 60.72C191.047 60.24 190.887 59.8467 190.567 59.54C190.247 59.2333 189.813 59.08 189.267 59.08H186.367V62.34ZM186.367 56.62H188.387C188.893 56.62 189.3 56.4733 189.607 56.18C189.913 55.8733 190.067 55.4933 190.067 55.04C190.067 54.6 189.907 54.2267 189.587 53.92C189.28 53.6 188.88 53.44 188.387 53.44H186.367V56.62ZM196.143 65V50.8H199.043V65H196.143ZM201.377 65V63.02L208.157 53.56H201.497V50.8H212.077V52.78L205.257 62.24H212.217V65H201.377Z" fill="white"/>
<path d="M130.24 63.86L129.553 64.5865L129.558 64.5914L130.24 63.86ZM128.68 60.6V59.6H127.636L127.681 60.643L128.68 60.6ZM131.58 60.6L132.566 60.4322L132.424 59.6H131.58V60.6ZM132.44 62.06L131.844 62.8627L131.851 62.8683L131.859 62.8737L132.44 62.06ZM135.6 62.18L136.162 63.0075L136.171 63.0007L136.181 62.9937L135.6 62.18ZM134.26 59.4L133.979 60.3596L133.987 60.3619L134.26 59.4ZM132.76 58.96L133.041 58.0004L133.036 57.9989L132.76 58.96ZM129.04 54.76L128.04 54.76L128.04 54.7727L129.04 54.76ZM130.34 51.7L130.993 52.4576L130.999 52.4519L130.34 51.7ZM137.34 51.88L136.644 52.5976L136.649 52.6029L137.34 51.88ZM138.78 54.88V55.88H139.828L139.779 54.833L138.78 54.88ZM135.9 54.88L134.933 55.1334L135.128 55.88H135.9V54.88ZM135.1 53.64L135.668 52.8168L135.668 52.8168L135.1 53.64ZM132.48 53.6L133.042 54.427L133.049 54.4222L132.48 53.6ZM131.96 54.56L130.961 54.5278L130.96 54.5288L131.96 54.56ZM132.38 55.6L133.053 54.8601L133.053 54.8601L132.38 55.6ZM133.74 56.26L133.468 57.2223L133.473 57.2237L133.74 56.26ZM135.4 56.72L135.667 55.7563L135.667 55.7563L135.4 56.72ZM137.7 64.06L138.355 64.8153L138.356 64.8146L137.7 64.06ZM134.14 64.24C132.727 64.24 131.688 63.8432 130.922 63.1286L129.558 64.5914C130.765 65.7168 132.326 66.24 134.14 66.24V64.24ZM130.927 63.1335C130.11 62.3604 129.72 61.5117 129.679 60.557L127.681 60.643C127.747 62.1683 128.397 63.4929 129.553 64.5865L130.927 63.1335ZM128.68 61.6H131.58V59.6H128.68V61.6ZM130.594 60.7678C130.74 61.6224 131.15 62.3475 131.844 62.8627L133.036 61.2573C132.797 61.0792 132.634 60.8309 132.566 60.4322L130.594 60.7678ZM131.859 62.8737C132.521 63.3471 133.3 63.56 134.14 63.56V61.56C133.647 61.56 133.292 61.4396 133.021 61.2463L131.859 62.8737ZM134.14 63.56C134.875 63.56 135.576 63.4049 136.162 63.0075L135.038 61.3525C134.877 61.4618 134.605 61.56 134.14 61.56V63.56ZM136.181 62.9937C136.804 62.5488 137.16 61.8989 137.16 61.12H135.16C135.16 61.2211 135.143 61.2778 135.019 61.3663L136.181 62.9937ZM137.16 61.12C137.16 60.4181 136.862 59.8166 136.356 59.3586C135.881 58.9281 135.242 58.6395 134.533 58.4381L133.987 60.3619C134.545 60.5205 134.856 60.6986 135.014 60.8414C135.141 60.9567 135.16 61.0353 135.16 61.12H137.16ZM134.541 58.4404L133.041 58.0004L132.479 59.9196L133.979 60.3596L134.541 58.4404ZM133.036 57.9989C132.008 57.7033 131.276 57.2635 130.774 56.7211L129.306 58.0789C130.111 58.9499 131.192 59.55 132.484 59.9211L133.036 57.9989ZM130.774 56.7211C130.305 56.2138 130.05 55.5787 130.04 54.7473L128.04 54.7727C128.056 56.0479 128.468 57.1728 129.306 58.0789L130.774 56.7211ZM130.04 54.76C130.04 53.7153 130.377 52.9882 130.993 52.4576L129.687 50.9424C128.57 51.9051 128.04 53.2181 128.04 54.76H130.04ZM130.999 52.4519C131.641 51.8888 132.54 51.56 133.8 51.56V49.56C132.18 49.56 130.772 49.9912 129.681 50.9481L130.999 52.4519ZM133.8 51.56C135.035 51.56 135.952 51.9261 136.644 52.5976L138.036 51.1624C136.915 50.0739 135.471 49.56 133.8 49.56V51.56ZM136.649 52.6029C137.391 53.3125 137.741 54.0781 137.781 54.927L139.779 54.833C139.712 53.4152 139.102 52.1808 138.031 51.1571L136.649 52.6029ZM138.78 53.88H135.9V55.88H138.78V53.88ZM136.867 54.6266C136.675 53.8909 136.294 53.249 135.668 52.8168L134.532 54.4632C134.679 54.5643 134.832 54.7491 134.933 55.1334L136.867 54.6266ZM135.668 52.8168C135.11 52.4323 134.478 52.24 133.8 52.24V54.24C134.082 54.24 134.316 54.3143 134.532 54.4632L135.668 52.8168ZM133.8 52.24C133.117 52.24 132.464 52.3947 131.911 52.7778L133.049 54.4222C133.189 54.3253 133.416 54.24 133.8 54.24V52.24ZM131.918 52.7731C131.312 53.185 130.984 53.8047 130.961 54.5278L132.959 54.5922C132.962 54.5196 132.976 54.492 132.979 54.4863C132.982 54.4814 132.993 54.4602 133.042 54.4269L131.918 52.7731ZM130.96 54.5288C130.939 55.2224 131.179 55.8599 131.707 56.3399L133.053 54.8601C132.994 54.8068 132.955 54.7509 132.96 54.5912L130.96 54.5288ZM131.707 56.3399C132.164 56.7553 132.786 57.0297 133.468 57.2223L134.012 55.2977C133.467 55.1437 133.182 54.978 133.053 54.8601L131.707 56.3399ZM133.473 57.2237L135.133 57.6837L135.667 55.7563L134.007 55.2963L133.473 57.2237ZM135.133 57.6837C136.233 57.9887 136.954 58.4342 137.4 58.9552C137.834 59.4624 138.08 60.125 138.08 61.02H140.08C140.08 59.7283 139.712 58.5809 138.92 57.6548C138.139 56.7425 137.02 56.1313 135.667 55.7563L135.133 57.6837ZM138.08 61.02C138.08 61.9593 137.744 62.6967 137.044 63.3054L138.356 64.8146C139.496 63.8233 140.08 62.5341 140.08 61.02H138.08ZM137.045 63.3047C136.358 63.9005 135.422 64.24 134.14 64.24V66.24C135.792 66.24 137.229 65.7928 138.355 64.8153L137.045 63.3047ZM144.795 61.12L144.072 61.8107L144.078 61.8163L144.083 61.8217L144.795 61.12ZM151.055 61.12L150.338 60.4237L150.338 60.4239L151.055 61.12ZM151.055 54.7L150.332 55.3907L150.338 55.3963L150.343 55.4017L151.055 54.7ZM144.795 54.7L144.078 54.0037L144.078 54.0039L144.795 54.7ZM153.115 63.1L153.823 63.8071L153.823 63.8071L153.115 63.1ZM142.735 63.1L142.025 63.8038L142.032 63.8104L142.735 63.1ZM142.735 52.72L143.443 53.4271L143.443 53.4271L142.735 52.72ZM153.115 52.72L152.405 53.4238L152.412 53.4304L153.115 52.72ZM144.083 61.8217C145.136 62.8911 146.439 63.44 147.935 63.44V61.44C146.979 61.44 146.188 61.1089 145.508 60.4183L144.083 61.8217ZM147.935 63.44C149.432 63.44 150.732 62.8905 151.773 61.8161L150.338 60.4239C149.673 61.1095 148.892 61.44 147.935 61.44V63.44ZM151.773 61.8163C152.822 60.7349 153.355 59.4113 153.355 57.9H151.355C151.355 58.8954 151.022 59.7184 150.338 60.4237L151.773 61.8163ZM153.355 57.9C153.355 56.3884 152.822 55.0685 151.768 53.9983L150.343 55.4017C151.022 56.0915 151.355 56.9049 151.355 57.9H153.355ZM151.779 54.0093C150.738 52.92 149.437 52.36 147.935 52.36V54.36C148.887 54.36 149.666 54.6933 150.332 55.3907L151.779 54.0093ZM147.935 52.36C146.434 52.36 145.13 52.9194 144.078 54.0037L145.513 55.3963C146.195 54.6939 146.984 54.36 147.935 54.36V52.36ZM144.078 54.0039C143.039 55.0751 142.515 56.3933 142.515 57.9H144.515C144.515 56.9 144.845 56.0849 145.513 55.3961L144.078 54.0039ZM142.515 57.9C142.515 59.4065 143.038 60.7284 144.072 61.8107L145.519 60.4293C144.846 59.725 144.515 58.9002 144.515 57.9H142.515ZM152.408 62.3929C151.17 63.6311 149.698 64.24 147.935 64.24V66.24C150.226 66.24 152.207 65.4223 153.823 63.8071L152.408 62.3929ZM147.935 64.24C146.172 64.24 144.692 63.6308 143.439 62.3896L142.032 63.8104C143.659 65.4225 145.645 66.24 147.935 66.24V64.24ZM143.446 62.3962C142.205 61.1434 141.595 59.663 141.595 57.9H139.595C139.595 60.1903 140.413 62.1766 142.025 63.8038L143.446 62.3962ZM141.595 57.9C141.595 56.1372 142.204 54.6653 143.443 53.4271L142.028 52.0129C140.413 53.628 139.595 55.6095 139.595 57.9H141.595ZM143.443 53.4271C144.696 52.1736 146.175 51.56 147.935 51.56V49.56C145.642 49.56 143.655 50.3864 142.028 52.0129L143.443 53.4271ZM147.935 51.56C149.695 51.56 151.166 52.1733 152.405 53.4238L153.826 52.0162C152.211 50.3867 150.229 49.56 147.935 49.56V51.56ZM152.412 53.4304C153.662 54.6693 154.275 56.1402 154.275 57.9H156.275C156.275 55.6064 155.449 53.624 153.819 52.0096L152.412 53.4304ZM154.275 57.9C154.275 59.66 153.662 61.1394 152.408 62.3929L153.823 63.8071C155.449 62.1806 156.275 60.1933 156.275 57.9H154.275ZM157.588 65H156.588V66H157.588V65ZM157.588 50.8V49.8H156.588V50.8H157.588ZM160.488 50.8H161.488V49.8H160.488V50.8ZM160.488 62.24H159.488V63.24H160.488V62.24ZM166.568 62.24H167.568V61.24H166.568V62.24ZM166.568 65V66H167.568V65H166.568ZM158.588 65V50.8H156.588V65H158.588ZM157.588 51.8H160.488V49.8H157.588V51.8ZM159.488 50.8V62.24H161.488V50.8H159.488ZM160.488 63.24H166.568V61.24H160.488V63.24ZM165.568 62.24V65H167.568V62.24H165.568ZM166.568 64H157.588V66H166.568V64ZM167.043 65L166.125 64.6042L165.524 66H167.043V65ZM173.163 50.8V49.8H172.506L172.245 50.4042L173.163 50.8ZM175.743 50.8L176.661 50.4031L176.401 49.8H175.743V50.8ZM181.883 65V66H183.405L182.801 64.6031L181.883 65ZM178.843 65L177.923 65.3919L178.182 66H178.843V65ZM177.463 61.76L178.383 61.3681L178.124 60.76H177.463V61.76ZM171.403 61.76V60.76H170.739L170.481 61.373L171.403 61.76ZM170.043 65V66H170.708L170.966 65.387L170.043 65ZM174.443 54.62L175.365 54.2314L174.448 52.0578L173.523 54.228L174.443 54.62ZM172.483 59.22L171.563 58.828L170.97 60.22H172.483V59.22ZM176.383 59.22V60.22H177.89L177.305 58.8314L176.383 59.22ZM167.962 65.3958L174.082 51.1958L172.245 50.4042L166.125 64.6042L167.962 65.3958ZM173.163 51.8H175.743V49.8H173.163V51.8ZM174.826 51.1969L180.966 65.3969L182.801 64.6031L176.661 50.4031L174.826 51.1969ZM181.883 64H178.843V66H181.883V64ZM179.763 64.6081L178.383 61.3681L176.543 62.1519L177.923 65.3919L179.763 64.6081ZM177.463 60.76H171.403V62.76H177.463V60.76ZM170.481 61.373L169.121 64.613L170.966 65.387L172.326 62.147L170.481 61.373ZM170.043 64H167.043V66H170.043V64ZM173.523 54.228L171.563 58.828L173.403 59.612L175.363 55.012L173.523 54.228ZM172.483 60.22H176.383V58.22H172.483V60.22ZM177.305 58.8314L175.365 54.2314L173.522 55.0086L175.462 59.6086L177.305 58.8314ZM183.467 65H182.467V66H183.467V65ZM183.467 50.8V49.8H182.467V50.8H183.467ZM191.667 52.02L190.96 52.7271L190.965 52.7329L191.667 52.02ZM191.767 57.46L191.101 56.7141L189.997 57.6995L191.323 58.3561L191.767 57.46ZM192.607 63.8L191.917 63.0759L191.917 63.0759L192.607 63.8ZM186.367 62.34H185.367V63.34H186.367V62.34ZM190.567 61.9L191.242 62.6372L191.251 62.6297L191.259 62.622L190.567 61.9ZM190.567 59.54L189.875 60.262L189.875 60.262L190.567 59.54ZM186.367 59.08V58.08H185.367V59.08H186.367ZM186.367 56.62H185.367V57.62H186.367V56.62ZM189.607 56.18L190.298 56.9026L190.306 56.895L190.314 56.8871L189.607 56.18ZM189.587 53.92L188.865 54.6119L188.879 54.6273L188.895 54.642L189.587 53.92ZM186.367 53.44V52.44H185.367V53.44H186.367ZM184.467 65V50.8H182.467V65H184.467ZM183.467 51.8H188.667V49.8H183.467V51.8ZM188.667 51.8C189.598 51.8 190.34 52.1078 190.96 52.7271L192.374 51.3129C191.366 50.3055 190.109 49.8 188.667 49.8V51.8ZM190.965 52.7329C191.589 53.3463 191.887 54.0567 191.887 54.92H193.887C193.887 53.5166 193.371 52.2937 192.368 51.3071L190.965 52.7329ZM191.887 54.92C191.887 55.6701 191.629 56.2426 191.101 56.7141L192.433 58.2059C193.398 57.3441 193.887 56.2232 193.887 54.92H191.887ZM191.323 58.3561C191.888 58.6358 192.259 58.9739 192.494 59.35C192.728 59.7255 192.867 60.2015 192.867 60.82H194.867C194.867 59.8918 194.655 59.0345 194.19 58.29C193.725 57.5461 193.046 56.9776 192.211 56.5639L191.323 58.3561ZM192.867 60.82C192.867 61.7401 192.554 62.4694 191.917 63.0759L193.296 64.5241C194.34 63.5306 194.867 62.2732 194.867 60.82H192.867ZM191.917 63.0759C191.279 63.6838 190.486 64 189.467 64V66C190.954 66 192.255 65.5162 193.296 64.5241L191.917 63.0759ZM189.467 64H183.467V66H189.467V64ZM186.367 63.34H189.267V61.34H186.367V63.34ZM189.267 63.34C189.996 63.34 190.694 63.1402 191.242 62.6372L189.891 61.1628C189.8 61.2465 189.631 61.34 189.267 61.34V63.34ZM191.259 62.622C191.793 62.11 192.047 61.4475 192.047 60.72H190.047C190.047 60.9525 189.981 61.0767 189.875 61.178L191.259 62.622ZM192.047 60.72C192.047 59.9925 191.793 59.33 191.259 58.818L189.875 60.262C189.981 60.3633 190.047 60.4875 190.047 60.72H192.047ZM191.259 58.818C190.711 58.2934 190.008 58.08 189.267 58.08V60.08C189.619 60.08 189.782 60.1733 189.875 60.262L191.259 58.818ZM189.267 58.08H186.367V60.08H189.267V58.08ZM185.367 59.08V62.34H187.367V59.08H185.367ZM186.367 57.62H188.387V55.62H186.367V57.62ZM188.387 57.62C189.098 57.62 189.77 57.4076 190.298 56.9026L188.915 55.4574C188.83 55.539 188.689 55.62 188.387 55.62V57.62ZM190.314 56.8871C190.817 56.3836 191.067 55.7452 191.067 55.04H189.067C189.067 55.2415 189.009 55.363 188.9 55.4729L190.314 56.8871ZM191.067 55.04C191.067 54.3252 190.794 53.6917 190.279 53.198L188.895 54.642C189.02 54.7616 189.067 54.8748 189.067 55.04H191.067ZM190.309 53.2281C189.791 52.688 189.119 52.44 188.387 52.44V54.44C188.641 54.44 188.769 54.512 188.865 54.6119L190.309 53.2281ZM188.387 52.44H186.367V54.44H188.387V52.44ZM185.367 53.44V56.62H187.367V53.44H185.367ZM196.143 65H195.143V66H196.143V65ZM196.143 50.8V49.8H195.143V50.8H196.143ZM199.043 50.8H200.043V49.8H199.043V50.8ZM199.043 65V66H200.043V65H199.043ZM197.143 65V50.8H195.143V65H197.143ZM196.143 51.8H199.043V49.8H196.143V51.8ZM198.043 50.8V65H200.043V50.8H198.043ZM199.043 64H196.143V66H199.043V64ZM201.377 65H200.377V66H201.377V65ZM201.377 63.02L200.564 62.4375L200.377 62.6987V63.02H201.377ZM208.157 53.56L208.97 54.1425L210.104 52.56H208.157V53.56ZM201.497 53.56H200.497V54.56H201.497V53.56ZM201.497 50.8V49.8H200.497V50.8H201.497ZM212.077 50.8H213.077V49.8H212.077V50.8ZM212.077 52.78L212.888 53.3648L213.077 53.1029V52.78H212.077ZM205.257 62.24L204.446 61.6552L203.303 63.24H205.257V62.24ZM212.217 62.24H213.217V61.24H212.217V62.24ZM212.217 65V66H213.217V65H212.217ZM202.377 65V63.02H200.377V65H202.377ZM202.19 63.6025L208.97 54.1425L207.344 52.9775L200.564 62.4375L202.19 63.6025ZM208.157 52.56H201.497V54.56H208.157V52.56ZM202.497 53.56V50.8H200.497V53.56H202.497ZM201.497 51.8H212.077V49.8H201.497V51.8ZM211.077 50.8V52.78H213.077V50.8H211.077ZM211.266 52.1952L204.446 61.6552L206.068 62.8248L212.888 53.3648L211.266 52.1952ZM205.257 63.24H212.217V61.24H205.257V63.24ZM211.217 62.24V65H213.217V62.24H211.217ZM212.217 64H201.377V66H212.217V64Z" fill="#00ADEF" fill-opacity="0.35"/>
<path d="M78.58 85V70.8H81.48V85H78.58ZM97.3147 85H94.8147L87.5347 75.74V85H84.6347V70.8H87.1347L94.4147 80.06V70.8H97.3147V85ZM113.155 85H110.655L103.375 75.74V85H100.475V70.8H102.975L110.255 80.06V70.8H113.155V85ZM119.674 81.12C120.541 82 121.588 82.44 122.814 82.44C124.041 82.44 125.081 82 125.934 81.12C126.801 80.2267 127.234 79.1533 127.234 77.9C127.234 76.6467 126.801 75.58 125.934 74.7C125.081 73.8067 124.041 73.36 122.814 73.36C121.588 73.36 120.541 73.8067 119.674 74.7C118.821 75.58 118.394 76.6467 118.394 77.9C118.394 79.1533 118.821 80.2267 119.674 81.12ZM127.994 83.1C126.568 84.5267 124.841 85.24 122.814 85.24C120.788 85.24 119.054 84.5267 117.614 83.1C116.188 81.66 115.474 79.9267 115.474 77.9C115.474 75.8733 116.188 74.1467 117.614 72.72C119.054 71.28 120.788 70.56 122.814 70.56C124.841 70.56 126.568 71.28 127.994 72.72C129.434 74.1467 130.154 75.8733 130.154 77.9C130.154 79.9267 129.434 81.66 127.994 83.1ZM136.221 85L130.361 70.8H133.501L137.521 80.66L141.481 70.8H144.681L138.801 85H136.221ZM143.153 85L149.273 70.8H151.853L157.993 85H154.953L153.573 81.76H147.513L146.153 85H143.153ZM150.553 74.62L148.593 79.22H152.493L150.553 74.62ZM160.809 85V73.56H157.029V70.8H167.549V73.56H163.729V85H160.809ZM169.557 85V70.8H172.457V85H169.557ZM178.971 81.12C179.838 82 180.885 82.44 182.111 82.44C183.338 82.44 184.378 82 185.231 81.12C186.098 80.2267 186.531 79.1533 186.531 77.9C186.531 76.6467 186.098 75.58 185.231 74.7C184.378 73.8067 183.338 73.36 182.111 73.36C180.885 73.36 179.838 73.8067 178.971 74.7C178.118 75.58 177.691 76.6467 177.691 77.9C177.691 79.1533 178.118 80.2267 178.971 81.12ZM187.291 83.1C185.865 84.5267 184.138 85.24 182.111 85.24C180.085 85.24 178.351 84.5267 176.911 83.1C175.485 81.66 174.771 79.9267 174.771 77.9C174.771 75.8733 175.485 74.1467 176.911 72.72C178.351 71.28 180.085 70.56 182.111 70.56C184.138 70.56 185.865 71.28 187.291 72.72C188.731 74.1467 189.451 75.8733 189.451 77.9C189.451 79.9267 188.731 81.66 187.291 83.1ZM204.444 85H201.944L194.664 75.74V85H191.764V70.8H194.264L201.544 80.06V70.8H204.444V85ZM207.603 70.8H210.243L214.863 77.14L219.483 70.8H222.123V85H219.223V75.76L214.863 81.74L210.503 75.76V85H207.603V70.8ZM223.719 85L229.839 70.8H232.419L238.559 85H235.519L234.139 81.76H228.079L226.719 85H223.719ZM231.119 74.62L229.159 79.22H233.059L231.119 74.62ZM240.143 85V70.8H245.583C246.876 70.8 247.923 71.2 248.723 72C249.536 72.8 249.943 73.8 249.943 75C249.943 76.8667 248.969 78.1 247.023 78.7L252.123 85H248.623L243.743 79.02H243.043V85H240.143ZM243.043 76.54H245.243C245.803 76.54 246.243 76.4067 246.563 76.14C246.896 75.86 247.063 75.48 247.063 75C247.063 74.52 246.896 74.1467 246.563 73.88C246.243 73.6 245.803 73.46 245.243 73.46H243.043V76.54ZM262.308 85L256.148 78.56V85H253.268V70.8H256.148V76.82L261.268 70.8H264.848L259.008 77.62L266.068 85H262.308ZM267.154 85V70.8H275.994V73.56H270.054V76.48H274.794V79.24H270.054V82.24H275.994V85H267.154ZM281.141 85V73.56H277.361V70.8H287.881V73.56H284.061V85H281.141ZM294.273 85.24C292.659 85.24 291.359 84.78 290.373 83.86C289.386 82.9267 288.866 81.84 288.813 80.6H291.713C291.819 81.2267 292.106 81.7133 292.573 82.06C293.039 82.3933 293.606 82.56 294.273 82.56C294.873 82.56 295.359 82.4333 295.733 82.18C296.106 81.9133 296.293 81.56 296.293 81.12C296.293 80.3333 295.659 79.76 294.393 79.4L292.893 78.96C291.733 78.6267 290.826 78.1067 290.173 77.4C289.519 76.6933 289.186 75.8133 289.173 74.76C289.173 73.4667 289.606 72.4467 290.473 71.7C291.339 70.94 292.493 70.56 293.933 70.56C295.386 70.56 296.566 71 297.473 71.88C298.379 72.7467 298.859 73.7467 298.913 74.88H296.033C295.886 74.32 295.619 73.9067 295.233 73.64C294.846 73.3733 294.413 73.24 293.933 73.24C293.399 73.24 292.959 73.36 292.613 73.6C292.279 73.8267 292.106 74.1467 292.093 74.56C292.079 74.9867 292.219 75.3333 292.513 75.6C292.806 75.8667 293.259 76.0867 293.873 76.26L295.533 76.72C297.986 77.4 299.213 78.8333 299.213 81.02C299.213 82.2467 298.753 83.26 297.833 84.06C296.926 84.8467 295.739 85.24 294.273 85.24Z" fill="white"/>
<path d="M78.58 85H77.58V86H78.58V85ZM78.58 70.8V69.8H77.58V70.8H78.58ZM81.48 70.8H82.48V69.8H81.48V70.8ZM81.48 85V86H82.48V85H81.48ZM79.58 85V70.8H77.58V85H79.58ZM78.58 71.8H81.48V69.8H78.58V71.8ZM80.48 70.8V85H82.48V70.8H80.48ZM81.48 84H78.58V86H81.48V84ZM97.3147 85V86H98.3147V85H97.3147ZM94.8147 85L94.0285 85.618L94.3288 86H94.8147V85ZM87.5347 75.74L88.3208 75.122L86.5347 72.85V75.74H87.5347ZM87.5347 85V86H88.5347V85H87.5347ZM84.6347 85H83.6347V86H84.6347V85ZM84.6347 70.8V69.8H83.6347V70.8H84.6347ZM87.1347 70.8L87.9208 70.182L87.6205 69.8H87.1347V70.8ZM94.4147 80.06L93.6285 80.678L95.4147 82.95V80.06H94.4147ZM94.4147 70.8V69.8H93.4147V70.8H94.4147ZM97.3147 70.8H98.3147V69.8H97.3147V70.8ZM97.3147 84H94.8147V86H97.3147V84ZM95.6008 84.382L88.3208 75.122L86.7485 76.358L94.0285 85.618L95.6008 84.382ZM86.5347 75.74V85H88.5347V75.74H86.5347ZM87.5347 84H84.6347V86H87.5347V84ZM85.6347 85V70.8H83.6347V85H85.6347ZM84.6347 71.8H87.1347V69.8H84.6347V71.8ZM86.3485 71.418L93.6285 80.678L95.2008 79.442L87.9208 70.182L86.3485 71.418ZM95.4147 80.06V70.8H93.4147V80.06H95.4147ZM94.4147 71.8H97.3147V69.8H94.4147V71.8ZM96.3147 70.8V85H98.3147V70.8H96.3147ZM113.155 85V86H114.155V85H113.155ZM110.655 85L109.868 85.618L110.169 86H110.655V85ZM103.375 75.74L104.161 75.122L102.375 72.85V75.74H103.375ZM103.375 85V86H104.375V85H103.375ZM100.475 85H99.4745V86H100.475V85ZM100.475 70.8V69.8H99.4745V70.8H100.475ZM102.975 70.8L103.761 70.182L103.46 69.8H102.975V70.8ZM110.255 80.06L109.468 80.678L111.255 82.95V80.06H110.255ZM110.255 70.8V69.8H109.255V70.8H110.255ZM113.155 70.8H114.155V69.8H113.155V70.8ZM113.155 84H110.655V86H113.155V84ZM111.441 84.382L104.161 75.122L102.588 76.358L109.868 85.618L111.441 84.382ZM102.375 75.74V85H104.375V75.74H102.375ZM103.375 84H100.475V86H103.375V84ZM101.475 85V70.8H99.4745V85H101.475ZM100.475 71.8H102.975V69.8H100.475V71.8ZM102.188 71.418L109.468 80.678L111.041 79.442L103.761 70.182L102.188 71.418ZM111.255 80.06V70.8H109.255V80.06H111.255ZM110.255 71.8H113.155V69.8H110.255V71.8ZM112.155 70.8V85H114.155V70.8H112.155ZM119.674 81.12L118.951 81.8107L118.957 81.8163L118.962 81.8217L119.674 81.12ZM125.934 81.12L125.217 80.4237L125.216 80.4239L125.934 81.12ZM125.934 74.7L125.211 75.3907L125.217 75.3963L125.222 75.4017L125.934 74.7ZM119.674 74.7L118.957 74.0037L118.956 74.0039L119.674 74.7ZM127.994 83.1L128.701 83.8071L128.701 83.8071L127.994 83.1ZM117.614 83.1L116.904 83.8038L116.911 83.8104L117.614 83.1ZM117.614 72.72L118.321 73.4271L118.321 73.4271L117.614 72.72ZM127.994 72.72L127.284 73.4238L127.291 73.4304L127.994 72.72ZM118.962 81.8217C120.015 82.8911 121.318 83.44 122.814 83.44V81.44C121.858 81.44 121.067 81.1089 120.387 80.4183L118.962 81.8217ZM122.814 83.44C124.311 83.44 125.61 82.8905 126.652 81.8161L125.216 80.4239C124.552 81.1095 123.771 81.44 122.814 81.44V83.44ZM126.652 81.8163C127.701 80.7349 128.234 79.4113 128.234 77.9H126.234C126.234 78.8954 125.901 79.7184 125.217 80.4237L126.652 81.8163ZM128.234 77.9C128.234 76.3884 127.701 75.0685 126.647 73.9983L125.222 75.4017C125.901 76.0915 126.234 76.9049 126.234 77.9H128.234ZM126.657 74.0093C125.617 72.92 124.316 72.36 122.814 72.36V74.36C123.766 74.36 124.545 74.6933 125.211 75.3907L126.657 74.0093ZM122.814 72.36C121.313 72.36 120.009 72.9194 118.957 74.0037L120.392 75.3963C121.074 74.6939 121.863 74.36 122.814 74.36V72.36ZM118.956 74.0039C117.918 75.0751 117.394 76.3933 117.394 77.9H119.394C119.394 76.9 119.724 76.0849 120.392 75.3961L118.956 74.0039ZM117.394 77.9C117.394 79.4065 117.917 80.7284 118.951 81.8107L120.397 80.4293C119.725 79.725 119.394 78.9002 119.394 77.9H117.394ZM127.287 82.3929C126.049 83.6311 124.577 84.24 122.814 84.24V86.24C125.105 86.24 127.086 85.4223 128.701 83.8071L127.287 82.3929ZM122.814 84.24C121.051 84.24 119.571 83.6308 118.318 82.3896L116.911 83.8104C118.538 85.4225 120.524 86.24 122.814 86.24V84.24ZM118.325 82.3962C117.084 81.1434 116.474 79.663 116.474 77.9H114.474C114.474 80.1903 115.292 82.1766 116.904 83.8038L118.325 82.3962ZM116.474 77.9C116.474 76.1372 117.083 74.6653 118.321 73.4271L116.907 72.0129C115.292 73.628 114.474 75.6095 114.474 77.9H116.474ZM118.321 73.4271C119.575 72.1736 121.054 71.56 122.814 71.56V69.56C120.521 69.56 118.534 70.3864 116.907 72.0129L118.321 73.4271ZM122.814 71.56C124.574 71.56 126.045 72.1733 127.284 73.4238L128.705 72.0162C127.09 70.3867 125.108 69.56 122.814 69.56V71.56ZM127.291 73.4304C128.541 74.6693 129.154 76.1402 129.154 77.9H131.154C131.154 75.6064 130.328 73.624 128.698 72.0096L127.291 73.4304ZM129.154 77.9C129.154 79.66 128.541 81.1394 127.287 82.3929L128.701 83.8071C130.328 82.1806 131.154 80.1933 131.154 77.9H129.154ZM136.221 85L135.296 85.3815L135.552 86H136.221V85ZM130.361 70.8V69.8H128.866L129.436 71.1815L130.361 70.8ZM133.501 70.8L134.427 70.4225L134.173 69.8H133.501V70.8ZM137.521 80.66L136.595 81.0375L137.528 83.3259L138.449 81.0327L137.521 80.66ZM141.481 70.8V69.8H140.805L140.553 70.4273L141.481 70.8ZM144.681 70.8L145.605 71.1826L146.177 69.8H144.681V70.8ZM138.801 85V86H139.469L139.725 85.3826L138.801 85ZM137.145 84.6185L131.285 70.4185L129.436 71.1815L135.296 85.3815L137.145 84.6185ZM130.361 71.8H133.501V69.8H130.361V71.8ZM132.575 71.1775L136.595 81.0375L138.447 80.2825L134.427 70.4225L132.575 71.1775ZM138.449 81.0327L142.409 71.1727L140.553 70.4273L136.593 80.2873L138.449 81.0327ZM141.481 71.8H144.681V69.8H141.481V71.8ZM143.757 70.4174L137.877 84.6174L139.725 85.3826L145.605 71.1826L143.757 70.4174ZM138.801 84H136.221V86H138.801V84ZM143.153 85L142.234 84.6042L141.633 86H143.153V85ZM149.273 70.8V69.8H148.615L148.354 70.4042L149.273 70.8ZM151.853 70.8L152.771 70.4031L152.51 69.8H151.853V70.8ZM157.993 85V86H159.515L158.911 84.6031L157.993 85ZM154.953 85L154.033 85.3919L154.292 86H154.953V85ZM153.573 81.76L154.493 81.3681L154.234 80.76H153.573V81.76ZM147.513 81.76V80.76H146.848L146.591 81.373L147.513 81.76ZM146.153 85V86H146.818L147.075 85.387L146.153 85ZM150.553 74.62L151.474 74.2314L150.558 72.0578L149.633 74.228L150.553 74.62ZM148.593 79.22L147.673 78.828L147.08 80.22H148.593V79.22ZM152.493 79.22V80.22H154L153.414 78.8314L152.493 79.22ZM144.071 85.3958L150.191 71.1958L148.354 70.4042L142.234 84.6042L144.071 85.3958ZM149.273 71.8H151.853V69.8H149.273V71.8ZM150.935 71.1969L157.075 85.3969L158.911 84.6031L152.771 70.4031L150.935 71.1969ZM157.993 84H154.953V86H157.993V84ZM155.873 84.6081L154.493 81.3681L152.653 82.1519L154.033 85.3919L155.873 84.6081ZM153.573 80.76H147.513V82.76H153.573V80.76ZM146.591 81.373L145.231 84.613L147.075 85.387L148.435 82.147L146.591 81.373ZM146.153 84H143.153V86H146.153V84ZM149.633 74.228L147.673 78.828L149.513 79.612L151.473 75.012L149.633 74.228ZM148.593 80.22H152.493V78.22H148.593V80.22ZM153.414 78.8314L151.474 74.2314L149.631 75.0086L151.571 79.6086L153.414 78.8314ZM160.809 85H159.809V86H160.809V85ZM160.809 73.56H161.809V72.56H160.809V73.56ZM157.029 73.56H156.029V74.56H157.029V73.56ZM157.029 70.8V69.8H156.029V70.8H157.029ZM167.549 70.8H168.549V69.8H167.549V70.8ZM167.549 73.56V74.56H168.549V73.56H167.549ZM163.729 73.56V72.56H162.729V73.56H163.729ZM163.729 85V86H164.729V85H163.729ZM161.809 85V73.56H159.809V85H161.809ZM160.809 72.56H157.029V74.56H160.809V72.56ZM158.029 73.56V70.8H156.029V73.56H158.029ZM157.029 71.8H167.549V69.8H157.029V71.8ZM166.549 70.8V73.56H168.549V70.8H166.549ZM167.549 72.56H163.729V74.56H167.549V72.56ZM162.729 73.56V85H164.729V73.56H162.729ZM163.729 84H160.809V86H163.729V84ZM169.557 85H168.557V86H169.557V85ZM169.557 70.8V69.8H168.557V70.8H169.557ZM172.457 70.8H173.457V69.8H172.457V70.8ZM172.457 85V86H173.457V85H172.457ZM170.557 85V70.8H168.557V85H170.557ZM169.557 71.8H172.457V69.8H169.557V71.8ZM171.457 70.8V85H173.457V70.8H171.457ZM172.457 84H169.557V86H172.457V84ZM178.971 81.12L178.248 81.8107L178.253 81.8163L178.259 81.8217L178.971 81.12ZM185.231 81.12L184.514 80.4237L184.513 80.4239L185.231 81.12ZM185.231 74.7L184.508 75.3907L184.513 75.3963L184.519 75.4017L185.231 74.7ZM178.971 74.7L178.254 74.0037L178.253 74.0039L178.971 74.7ZM187.291 83.1L187.998 83.8071L187.998 83.8071L187.291 83.1ZM176.911 83.1L176.201 83.8038L176.207 83.8104L176.911 83.1ZM176.911 72.72L177.618 73.4271L177.618 73.4271L176.911 72.72ZM187.291 72.72L186.581 73.4238L186.587 73.4304L187.291 72.72ZM178.259 81.8217C179.312 82.8911 180.615 83.44 182.111 83.44V81.44C181.155 81.44 180.364 81.1089 179.684 80.4183L178.259 81.8217ZM182.111 83.44C183.608 83.44 184.907 82.8905 185.949 81.8161L184.513 80.4239C183.849 81.1095 183.068 81.44 182.111 81.44V83.44ZM185.949 81.8163C186.998 80.7349 187.531 79.4113 187.531 77.9H185.531C185.531 78.8954 185.198 79.7184 184.514 80.4237L185.949 81.8163ZM187.531 77.9C187.531 76.3884 186.998 75.0685 185.944 73.9983L184.519 75.4017C185.198 76.0915 185.531 76.9049 185.531 77.9H187.531ZM185.954 74.0093C184.914 72.92 183.613 72.36 182.111 72.36V74.36C183.063 74.36 183.842 74.6933 184.508 75.3907L185.954 74.0093ZM182.111 72.36C180.61 72.36 179.305 72.9194 178.254 74.0037L179.689 75.3963C180.37 74.6939 181.159 74.36 182.111 74.36V72.36ZM178.253 74.0039C177.215 75.0751 176.691 76.3933 176.691 77.9H178.691C178.691 76.9 179.021 76.0849 179.689 75.3961L178.253 74.0039ZM176.691 77.9C176.691 79.4065 177.214 80.7284 178.248 81.8107L179.694 80.4293C179.022 79.725 178.691 78.9002 178.691 77.9H176.691ZM186.584 82.3929C185.346 83.6311 183.874 84.24 182.111 84.24V86.24C184.402 86.24 186.383 85.4223 187.998 83.8071L186.584 82.3929ZM182.111 84.24C180.348 84.24 178.868 83.6308 177.615 82.3896L176.207 83.8104C177.835 85.4225 179.821 86.24 182.111 86.24V84.24ZM177.622 82.3962C176.38 81.1434 175.771 79.663 175.771 77.9H173.771C173.771 80.1903 174.589 82.1766 176.201 83.8038L177.622 82.3962ZM175.771 77.9C175.771 76.1372 176.38 74.6653 177.618 73.4271L176.204 72.0129C174.589 73.628 173.771 75.6095 173.771 77.9H175.771ZM177.618 73.4271C178.872 72.1736 180.351 71.56 182.111 71.56V69.56C179.818 69.56 177.831 70.3864 176.204 72.0129L177.618 73.4271ZM182.111 71.56C183.871 71.56 185.342 72.1733 186.581 73.4238L188.002 72.0162C186.387 70.3867 184.405 69.56 182.111 69.56V71.56ZM186.587 73.4304C187.838 74.6693 188.451 76.1402 188.451 77.9H190.451C190.451 75.6064 189.625 73.624 187.995 72.0096L186.587 73.4304ZM188.451 77.9C188.451 79.66 187.838 81.1394 186.584 82.3929L187.998 83.8071C189.625 82.1806 190.451 80.1933 190.451 77.9H188.451ZM204.444 85V86H205.444V85H204.444ZM201.944 85L201.157 85.618L201.458 86H201.944V85ZM194.664 75.74L195.45 75.122L193.664 72.85V75.74H194.664ZM194.664 85V86H195.664V85H194.664ZM191.764 85H190.764V86H191.764V85ZM191.764 70.8V69.8H190.764V70.8H191.764ZM194.264 70.8L195.05 70.182L194.749 69.8H194.264V70.8ZM201.544 80.06L200.757 80.678L202.544 82.95V80.06H201.544ZM201.544 70.8V69.8H200.544V70.8H201.544ZM204.444 70.8H205.444V69.8H204.444V70.8ZM204.444 84H201.944V86H204.444V84ZM202.73 84.382L195.45 75.122L193.877 76.358L201.157 85.618L202.73 84.382ZM193.664 75.74V85H195.664V75.74H193.664ZM194.664 84H191.764V86H194.664V84ZM192.764 85V70.8H190.764V85H192.764ZM191.764 71.8H194.264V69.8H191.764V71.8ZM193.477 71.418L200.757 80.678L202.33 79.442L195.05 70.182L193.477 71.418ZM202.544 80.06V70.8H200.544V80.06H202.544ZM201.544 71.8H204.444V69.8H201.544V71.8ZM203.444 70.8V85H205.444V70.8H203.444ZM207.603 70.8V69.8H206.603V70.8H207.603ZM210.243 70.8L211.052 70.2111L210.752 69.8H210.243V70.8ZM214.863 77.14L214.055 77.7289L214.863 78.838L215.672 77.7289L214.863 77.14ZM219.483 70.8V69.8H218.975L218.675 70.2111L219.483 70.8ZM222.123 70.8H223.123V69.8H222.123V70.8ZM222.123 85V86H223.123V85H222.123ZM219.223 85H218.223V86H219.223V85ZM219.223 75.76H220.223V72.691L218.415 75.1709L219.223 75.76ZM214.863 81.74L214.055 82.3291L214.863 83.4374L215.671 82.3291L214.863 81.74ZM210.503 75.76L211.311 75.1709L209.503 72.691V75.76H210.503ZM210.503 85V86H211.503V85H210.503ZM207.603 85H206.603V86H207.603V85ZM207.603 71.8H210.243V69.8H207.603V71.8ZM209.435 71.3889L214.055 77.7289L215.672 76.5511L211.052 70.2111L209.435 71.3889ZM215.672 77.7289L220.292 71.3889L218.675 70.2111L214.055 76.5511L215.672 77.7289ZM219.483 71.8H222.123V69.8H219.483V71.8ZM221.123 70.8V85H223.123V70.8H221.123ZM222.123 84H219.223V86H222.123V84ZM220.223 85V75.76H218.223V85H220.223ZM218.415 75.1709L214.055 81.1509L215.671 82.3291L220.031 76.3491L218.415 75.1709ZM215.671 81.1509L211.311 75.1709L209.695 76.3491L214.055 82.3291L215.671 81.1509ZM209.503 75.76V85H211.503V75.76H209.503ZM210.503 84H207.603V86H210.503V84ZM208.603 85V70.8H206.603V85H208.603ZM223.719 85L222.801 84.6042L222.199 86H223.719V85ZM229.839 70.8V69.8H229.181L228.921 70.4042L229.839 70.8ZM232.419 70.8L233.337 70.4031L233.076 69.8H232.419V70.8ZM238.559 85V86H240.081L239.477 84.6031L238.559 85ZM235.519 85L234.599 85.3919L234.858 86H235.519V85ZM234.139 81.76L235.059 81.3681L234.8 80.76H234.139V81.76ZM228.079 81.76V80.76H227.414L227.157 81.373L228.079 81.76ZM226.719 85V86H227.384L227.641 85.387L226.719 85ZM231.119 74.62L232.041 74.2314L231.124 72.0578L230.199 74.228L231.119 74.62ZM229.159 79.22L228.239 78.828L227.646 80.22H229.159V79.22ZM233.059 79.22V80.22H234.566L233.981 78.8314L233.059 79.22ZM224.638 85.3958L230.758 71.1958L228.921 70.4042L222.801 84.6042L224.638 85.3958ZM229.839 71.8H232.419V69.8H229.839V71.8ZM231.501 71.1969L237.641 85.3969L239.477 84.6031L233.337 70.4031L231.501 71.1969ZM238.559 84H235.519V86H238.559V84ZM236.439 84.6081L235.059 81.3681L233.219 82.1519L234.599 85.3919L236.439 84.6081ZM234.139 80.76H228.079V82.76H234.139V80.76ZM227.157 81.373L225.797 84.613L227.641 85.387L229.001 82.147L227.157 81.373ZM226.719 84H223.719V86H226.719V84ZM230.199 74.228L228.239 78.828L230.079 79.612L232.039 75.012L230.199 74.228ZM229.159 80.22H233.059V78.22H229.159V80.22ZM233.981 78.8314L232.041 74.2314L230.198 75.0086L232.138 79.6086L233.981 78.8314ZM240.143 85H239.143V86H240.143V85ZM240.143 70.8V69.8H239.143V70.8H240.143ZM248.723 72L248.015 72.7071L248.021 72.7129L248.723 72ZM247.023 78.7L246.728 77.7444L245.315 78.1799L246.245 79.3292L247.023 78.7ZM252.123 85V86H254.219L252.9 84.3708L252.123 85ZM248.623 85L247.848 85.6322L248.148 86H248.623V85ZM243.743 79.02L244.517 78.3877L244.217 78.02H243.743V79.02ZM243.043 79.02V78.02H242.043V79.02H243.043ZM243.043 85V86H244.043V85H243.043ZM243.043 76.54H242.043V77.54H243.043V76.54ZM246.563 76.14L247.203 76.9082L247.206 76.9057L246.563 76.14ZM246.563 73.88L245.904 74.6326L245.921 74.6471L245.938 74.6609L246.563 73.88ZM243.043 73.46V72.46H242.043V73.46H243.043ZM241.143 85V70.8H239.143V85H241.143ZM240.143 71.8H245.583V69.8H240.143V71.8ZM245.583 71.8C246.652 71.8 247.43 72.1219 248.015 72.7071L249.43 71.2929C248.415 70.2781 247.1 69.8 245.583 69.8V71.8ZM248.021 72.7129C248.633 73.3143 248.943 74.0526 248.943 75H250.943C250.943 73.5474 250.439 72.2857 249.424 71.2871L248.021 72.7129ZM248.943 75C248.943 75.7524 248.75 76.2969 248.428 76.7055C248.099 77.1218 247.565 77.4865 246.728 77.7444L247.317 79.6556C248.427 79.3135 249.353 78.7615 249.997 77.9445C250.648 77.1198 250.943 76.1142 250.943 75H248.943ZM246.245 79.3292L251.345 85.6292L252.9 84.3708L247.8 78.0708L246.245 79.3292ZM252.123 84H248.623V86H252.123V84ZM249.397 84.3678L244.517 78.3877L242.968 79.6522L247.848 85.6322L249.397 84.3678ZM243.743 78.02H243.043V80.02H243.743V78.02ZM242.043 79.02V85H244.043V79.02H242.043ZM243.043 84H240.143V86H243.043V84ZM243.043 77.54H245.243V75.54H243.043V77.54ZM245.243 77.54C245.956 77.54 246.649 77.3693 247.203 76.9082L245.922 75.3718C245.836 75.444 245.649 75.54 245.243 75.54V77.54ZM247.206 76.9057C247.79 76.4147 248.063 75.7411 248.063 75H246.063C246.063 75.2189 246.001 75.3053 245.919 75.3743L247.206 76.9057ZM248.063 75C248.063 74.2591 247.789 73.5808 247.187 73.0991L245.938 74.6609C246.002 74.7125 246.063 74.7809 246.063 75H248.063ZM247.221 73.1274C246.667 72.6431 245.967 72.46 245.243 72.46V74.46C245.638 74.46 245.818 74.5569 245.904 74.6326L247.221 73.1274ZM245.243 72.46H243.043V74.46H245.243V72.46ZM242.043 73.46V76.54H244.043V73.46H242.043ZM262.308 85L261.585 85.6912L261.88 86H262.308V85ZM256.148 78.56L256.87 77.8688L255.148 76.0678V78.56H256.148ZM256.148 85V86H257.148V85H256.148ZM253.268 85H252.268V86H253.268V85ZM253.268 70.8V69.8H252.268V70.8H253.268ZM256.148 70.8H257.148V69.8H256.148V70.8ZM256.148 76.82H255.148V79.5393L256.909 77.4679L256.148 76.82ZM261.268 70.8V69.8H260.805L260.506 70.1521L261.268 70.8ZM264.848 70.8L265.607 71.4504L267.02 69.8H264.848V70.8ZM259.008 77.62L258.248 76.9696L257.659 77.6572L258.285 78.3113L259.008 77.62ZM266.068 85V86H268.408L266.79 84.3087L266.068 85ZM263.03 84.3088L256.87 77.8688L255.425 79.2512L261.585 85.6912L263.03 84.3088ZM255.148 78.56V85H257.148V78.56H255.148ZM256.148 84H253.268V86H256.148V84ZM254.268 85V70.8H252.268V85H254.268ZM253.268 71.8H256.148V69.8H253.268V71.8ZM255.148 70.8V76.82H257.148V70.8H255.148ZM256.909 77.4679L262.029 71.4479L260.506 70.1521L255.386 76.1721L256.909 77.4679ZM261.268 71.8H264.848V69.8H261.268V71.8ZM264.088 70.1496L258.248 76.9696L259.767 78.2704L265.607 71.4504L264.088 70.1496ZM258.285 78.3113L265.345 85.6913L266.79 84.3087L259.73 76.9287L258.285 78.3113ZM266.068 84H262.308V86H266.068V84ZM267.154 85H266.154V86H267.154V85ZM267.154 70.8V69.8H266.154V70.8H267.154ZM275.994 70.8H276.994V69.8H275.994V70.8ZM275.994 73.56V74.56H276.994V73.56H275.994ZM270.054 73.56V72.56H269.054V73.56H270.054ZM270.054 76.48H269.054V77.48H270.054V76.48ZM274.794 76.48H275.794V75.48H274.794V76.48ZM274.794 79.24V80.24H275.794V79.24H274.794ZM270.054 79.24V78.24H269.054V79.24H270.054ZM270.054 82.24H269.054V83.24H270.054V82.24ZM275.994 82.24H276.994V81.24H275.994V82.24ZM275.994 85V86H276.994V85H275.994ZM268.154 85V70.8H266.154V85H268.154ZM267.154 71.8H275.994V69.8H267.154V71.8ZM274.994 70.8V73.56H276.994V70.8H274.994ZM275.994 72.56H270.054V74.56H275.994V72.56ZM269.054 73.56V76.48H271.054V73.56H269.054ZM270.054 77.48H274.794V75.48H270.054V77.48ZM273.794 76.48V79.24H275.794V76.48H273.794ZM274.794 78.24H270.054V80.24H274.794V78.24ZM269.054 79.24V82.24H271.054V79.24H269.054ZM270.054 83.24H275.994V81.24H270.054V83.24ZM274.994 82.24V85H276.994V82.24H274.994ZM275.994 84H267.154V86H275.994V84ZM281.141 85H280.141V86H281.141V85ZM281.141 73.56H282.141V72.56H281.141V73.56ZM277.361 73.56H276.361V74.56H277.361V73.56ZM277.361 70.8V69.8H276.361V70.8H277.361ZM287.881 70.8H288.881V69.8H287.881V70.8ZM287.881 73.56V74.56H288.881V73.56H287.881ZM284.061 73.56V72.56H283.061V73.56H284.061ZM284.061 85V86H285.061V85H284.061ZM282.141 85V73.56H280.141V85H282.141ZM281.141 72.56H277.361V74.56H281.141V72.56ZM278.361 73.56V70.8H276.361V73.56H278.361ZM277.361 71.8H287.881V69.8H277.361V71.8ZM286.881 70.8V73.56H288.881V70.8H286.881ZM287.881 72.56H284.061V74.56H287.881V72.56ZM283.061 73.56V85H285.061V73.56H283.061ZM284.061 84H281.141V86H284.061V84ZM290.373 83.86L289.686 84.5865L289.691 84.5914L290.373 83.86ZM288.813 80.6V79.6H287.769L287.814 80.643L288.813 80.6ZM291.713 80.6L292.699 80.4322L292.557 79.6H291.713V80.6ZM292.573 82.06L291.976 82.8627L291.984 82.8683L291.992 82.8737L292.573 82.06ZM295.733 82.18L296.294 83.0075L296.304 83.0007L296.314 82.9937L295.733 82.18ZM294.393 79.4L294.111 80.3596L294.119 80.3619L294.393 79.4ZM292.893 78.96L293.174 78.0004L293.169 77.9989L292.893 78.96ZM289.173 74.76L288.173 74.76L288.173 74.7727L289.173 74.76ZM290.473 71.7L291.126 72.4576L291.132 72.4519L290.473 71.7ZM297.473 71.88L296.776 72.5976L296.782 72.6029L297.473 71.88ZM298.913 74.88V75.88H299.961L299.912 74.833L298.913 74.88ZM296.033 74.88L295.065 75.1334L295.261 75.88H296.033V74.88ZM295.233 73.64L295.801 72.8168L295.801 72.8168L295.233 73.64ZM292.613 73.6L293.175 74.427L293.182 74.4222L292.613 73.6ZM292.093 74.56L291.093 74.5278L291.093 74.5288L292.093 74.56ZM292.513 75.6L293.185 74.8601L293.185 74.8601L292.513 75.6ZM293.873 76.26L293.601 77.2223L293.606 77.2237L293.873 76.26ZM295.533 76.72L295.8 75.7563L295.8 75.7563L295.533 76.72ZM297.833 84.06L298.488 84.8153L298.489 84.8146L297.833 84.06ZM294.273 84.24C292.86 84.24 291.821 83.8432 291.055 83.1286L289.691 84.5914C290.898 85.7168 292.459 86.24 294.273 86.24V84.24ZM291.06 83.1335C290.243 82.3604 289.853 81.5117 289.812 80.557L287.814 80.643C287.879 82.1683 288.53 83.4929 289.686 84.5865L291.06 83.1335ZM288.813 81.6H291.713V79.6H288.813V81.6ZM290.727 80.7678C290.872 81.6224 291.283 82.3475 291.976 82.8627L293.169 81.2573C292.929 81.0792 292.766 80.8309 292.699 80.4322L290.727 80.7678ZM291.992 82.8737C292.654 83.3471 293.433 83.56 294.273 83.56V81.56C293.78 81.56 293.425 81.4396 293.154 81.2463L291.992 82.8737ZM294.273 83.56C295.008 83.56 295.709 83.4049 296.294 83.0075L295.171 81.3525C295.01 81.4618 294.738 81.56 294.273 81.56V83.56ZM296.314 82.9937C296.937 82.5488 297.293 81.8989 297.293 81.12H295.293C295.293 81.2211 295.275 81.2778 295.152 81.3663L296.314 82.9937ZM297.293 81.12C297.293 80.4181 296.995 79.8166 296.489 79.3586C296.013 78.9281 295.375 78.6395 294.666 78.4381L294.119 80.3619C294.677 80.5205 294.989 80.6986 295.147 80.8414C295.274 80.9567 295.293 81.0353 295.293 81.12H297.293ZM294.674 78.4404L293.174 78.0004L292.611 79.9196L294.111 80.3596L294.674 78.4404ZM293.169 77.9989C292.14 77.7033 291.408 77.2635 290.907 76.7211L289.439 78.0789C290.244 78.9499 291.325 79.55 292.617 79.9211L293.169 77.9989ZM290.907 76.7211C290.438 76.2138 290.183 75.5787 290.173 74.7473L288.173 74.7727C288.189 76.0479 288.601 77.1728 289.439 78.0789L290.907 76.7211ZM290.173 74.76C290.173 73.7153 290.51 72.9882 291.126 72.4576L289.82 70.9424C288.703 71.9051 288.173 73.2181 288.173 74.76H290.173ZM291.132 72.4519C291.774 71.8888 292.673 71.56 293.933 71.56V69.56C292.313 69.56 290.905 69.9912 289.813 70.9481L291.132 72.4519ZM293.933 71.56C295.168 71.56 296.084 71.9261 296.776 72.5976L298.169 71.1624C297.048 70.0739 295.604 69.56 293.933 69.56V71.56ZM296.782 72.6029C297.524 73.3125 297.874 74.0781 297.914 74.927L299.912 74.833C299.845 73.4152 299.235 72.1808 298.164 71.1571L296.782 72.6029ZM298.913 73.88H296.033V75.88H298.913V73.88ZM297 74.6266C296.807 73.8909 296.427 73.249 295.801 72.8168L294.665 74.4632C294.812 74.5643 294.965 74.7491 295.065 75.1334L297 74.6266ZM295.801 72.8168C295.243 72.4323 294.611 72.24 293.933 72.24V74.24C294.215 74.24 294.449 74.3143 294.665 74.4632L295.801 72.8168ZM293.933 72.24C293.25 72.24 292.597 72.3947 292.044 72.7778L293.182 74.4222C293.322 74.3253 293.549 74.24 293.933 74.24V72.24ZM292.051 72.7731C291.445 73.185 291.117 73.8047 291.093 74.5278L293.092 74.5922C293.095 74.5196 293.109 74.492 293.112 74.4863C293.115 74.4814 293.126 74.4602 293.175 74.4269L292.051 72.7731ZM291.093 74.5288C291.072 75.2224 291.312 75.8599 291.84 76.3399L293.185 74.8601C293.127 74.8068 293.087 74.7509 293.092 74.5912L291.093 74.5288ZM291.84 76.3399C292.297 76.7553 292.919 77.0297 293.601 77.2223L294.145 75.2977C293.6 75.1437 293.315 74.978 293.185 74.8601L291.84 76.3399ZM293.606 77.2237L295.266 77.6837L295.8 75.7563L294.14 75.2963L293.606 77.2237ZM295.266 77.6837C296.366 77.9887 297.087 78.4342 297.533 78.9552C297.967 79.4624 298.213 80.125 298.213 81.02H300.213C300.213 79.7283 299.845 78.5809 299.053 77.6548C298.272 76.7425 297.153 76.1313 295.8 75.7563L295.266 77.6837ZM298.213 81.02C298.213 81.9593 297.877 82.6967 297.177 83.3054L298.489 84.8146C299.629 83.8233 300.213 82.5341 300.213 81.02H298.213ZM297.177 83.3047C296.491 83.9005 295.554 84.24 294.273 84.24V86.24C295.925 86.24 297.362 85.7928 298.488 84.8153L297.177 83.3047Z" fill="#00ADEF" fill-opacity="0.35"/>
</svg>
